<svg xmlns="http://www.w3.org/2000/svg" width="37" height="40" viewBox="0 0 37 40">
    <defs>
        <linearGradient id="a" x1="50%" x2="50%" y1="-4.16%" y2="105.136%">
            <stop offset="0%" stop-color="#00EFD1"/>
            <stop offset="100%" stop-color="#00ACEA"/>
        </linearGradient>
    </defs>
    <path fill="url(#a)" fill-rule="nonzero" d="M33.036 27.75A3.968 3.968 0 0 1 37 31.714v3.965a3.968 3.968 0 0 1-3.964 3.964H32c-.726 0-1.441-.17-2.09-.494a3.37 3.37 0 0 0-3 0 4.692 4.692 0 0 1-2.09.494h-1.035a3.953 3.953 0 0 1-2.947-1.322H5.286a.66.66 0 0 1-.656-.576L2.062 17.84H.661A.66.66 0 0 1 0 17.18v-2.643a.66.66 0 0 1 .66-.661h2.644V8.589a.653.653 0 0 1 .048-.238.682.682 0 0 1 .04-.075.736.736 0 0 1 .056-.1l2.498-3.122V.661A.66.66 0 0 1 6.607 0h3.964a.66.66 0 0 1 .661.66v4.394l2.498 3.122c.021.032.04.066.056.1a.682.682 0 0 1 .04.075c.032.076.048.156.049.238v5.286h1.321v-3.304a.66.66 0 0 1 .194-.467l1.789-1.788V6.607h-1.322a.66.66 0 0 1-.66-.66A5.954 5.954 0 0 1 21.142 0h6.607a.66.66 0 0 1 .66.66v2.644a.66.66 0 0 1-.66.66h-2.412l-.817.654 1.838 3.676-1.182.59-1.711-3.421-1.002.8v2.053l3.11 3.11a.66.66 0 0 1 .194.467v1.982h2.643a.66.66 0 0 1 .66.66v2.644a.66.66 0 0 1-.66.66h-1.402l-1.287 10.008c.412.078.812.212 1.189.397a3.37 3.37 0 0 0 3 0A4.692 4.692 0 0 1 32 27.75h1.035zM25.768 1.321v1.322h1.321V1.32h-1.321zm1.982 13.875H18.5v1.322h9.25v-1.322zm-11.185-9.91h5.007l2.874-2.3V1.321h-3.303a4.632 4.632 0 0 0-4.578 3.965zm4.578 1.321H18.5V7.93h2.643V6.607zm-4.625 4.238v3.03h7.928v-1.709L21.53 9.25h-3.417l-1.595 1.595zm-.66 4.351h-7.93v14.536c0 .73.592 1.322 1.322 1.322v-5.947h1.321v5.947h1.322v-5.947h1.321v5.947h1.322v-5.947h1.321v5.947c.73 0 1.322-.592 1.322-1.322v-6.607a.661.661 0 0 1 .95-.592l2.683 1.341.002.001a.772.772 0 0 0 1.035-.346.85.85 0 0 0 .066-.661.798.798 0 0 0-.407-.47l-3.964-1.982a.66.66 0 0 1-.365-.595v-4.625h-1.322zM7.267 1.321v3.304H9.91V1.321H7.268zm-.344 4.625L5.34 7.93h6.501l-1.586-1.983h-3.33zM4.625 9.25v4.625h7.929V9.25H4.625zm-3.304 7.268h5.286v-1.322H1.321v1.322zm18.5 15.196a3.968 3.968 0 0 1 3.965-3.964h.612l1.28-9.91H18.5v1.573l3.603 1.801a2.139 2.139 0 0 1 .95 2.873l-.007.014a2.106 2.106 0 0 1-2.82.956l-1.726-.863v5.538a2.643 2.643 0 0 1-2.643 2.643H9.25a2.643 2.643 0 0 1-2.643-2.643V17.84H3.394L5.866 37h14.187a3.95 3.95 0 0 1-.232-1.321v-3.965zM35.68 35.68V34.66a3.944 3.944 0 0 1-2.643 1.018H32c-.726-.001-1.441-.17-2.09-.494a3.37 3.37 0 0 0-3 0 4.692 4.692 0 0 1-2.09.494h-1.035a3.944 3.944 0 0 1-2.643-1.018v1.018a2.643 2.643 0 0 0 2.643 2.642h1.034a3.37 3.37 0 0 0 1.5-.354 4.7 4.7 0 0 1 4.182 0 3.37 3.37 0 0 0 1.499.354h1.035a2.643 2.643 0 0 0 2.643-2.642zm-2.643-1.322a2.643 2.643 0 0 0 0-5.286H32a3.37 3.37 0 0 0-1.5.355 4.702 4.702 0 0 1-4.181 0 3.37 3.37 0 0 0-1.5-.355h-1.034a2.643 2.643 0 0 0 0 5.286h1.034a3.37 3.37 0 0 0 1.5-.354 4.7 4.7 0 0 1 4.182 0 3.37 3.37 0 0 0 1.499.354h1.035zm-.661-3.964h1.321v1.321h-1.321v-1.321zm-6.607 0h1.321v1.321h-1.321v-1.321zm-2.643.66h1.321v1.322h-1.321v-1.321zm6.607 0h1.322v1.322h-1.322v-1.321z"/>
</svg>
