<svg xmlns="http://www.w3.org/2000/svg" width="34" height="37" viewBox="0 0 34 37">
    <defs>
        <linearGradient id="a" x1="50%" x2="50%" y1="-4.16%" y2="105.136%">
            <stop offset="0%" stop-color="#00EFD1"/>
            <stop offset="100%" stop-color="#00ACEA"/>
        </linearGradient>
    </defs>
    <path fill="url(#a)" fill-rule="nonzero" d="M33.393 2.433c.336 0 .607.271.607.608V35.88a.607.607 0 0 1-.607.608H.607A.607.607 0 0 1 0 35.88V3.04c0-.336.271-.607.607-.607h4.25V.608c0-.336.272-.608.607-.608h4.25c.336 0 .607.272.607.608v1.825H23.68V.608c0-.336.271-.608.607-.608h4.25c.335 0 .607.272.607.608v1.825h4.25zm-8.5-1.217v3.649h3.036V1.216h-3.036zm-18.822 0v3.649h3.036V1.216H6.071zM1.214 3.65v5.473h31.572V3.649h-3.643v1.824a.607.607 0 0 1-.607.608h-4.25a.607.607 0 0 1-.607-.608V3.65H10.32v1.824a.607.607 0 0 1-.607.608h-4.25a.607.607 0 0 1-.607-.608V3.65H1.214zm0 31.623h31.572V10.338H1.214v24.934zm20.643-21.285h6.679v17.636H5.464V13.987h16.393zm-4.25 1.216v4.257h4.25v-4.257h-4.25zm4.25 9.73v-4.257h-4.25v4.257h4.25zm-9.714-4.257v4.257h4.25v-4.257h-4.25zm0-5.473v4.257h4.25v-4.257h-4.25zm-5.464 0v4.257h4.25v-4.257h-4.25zm0 5.473v4.257h4.25v-4.257h-4.25zm4.25 9.73V26.15h-4.25v4.257h4.25zm5.464 0V26.15h-4.25v4.257h4.25zm5.464 0V26.15h-4.25v4.257h4.25zm5.464 0V26.15h-4.25v4.257h4.25zm0-5.473v-4.257h-4.25v4.257h4.25zm0-9.73h-4.25v4.257h4.25v-4.257z"/>
</svg>
