<svg xmlns="http://www.w3.org/2000/svg" width="48" height="41" viewBox="0 0 48 41">
    <defs>
        <linearGradient id="a" x1="50%" x2="50%" y1="-4.16%" y2="105.136%">
            <stop offset="0%" stop-color="#00EFD1"/>
            <stop offset="100%" stop-color="#00ACEA"/>
        </linearGradient>
    </defs>
    <path fill="url(#a)" fill-rule="nonzero" d="M39.367 4.733c1.452 0 2.596.702 2.596 2.589v.068c0 1.887-1.178 2.612-2.688 2.612h-1.28v2.67c0 .31-.378.471-.744.471-.378 0-.744-.16-.744-.471v-7.48c0-.24.218-.46.56-.46h2.3zm1.109 2.773v-.138c0-.898-.457-1.324-1.2-1.324h-1.282V8.83h1.281c.744 0 1.2-.426 1.2-1.323zm-13.518.15a.678.678 0 0 1 0 .955.667.667 0 0 1-.95 0 10.057 10.057 0 0 0-7.179-2.992 10.057 10.057 0 0 0-7.18 2.992.668.668 0 0 1-.948 0 .678.678 0 0 1 0-.955 11.385 11.385 0 0 1 8.128-3.387c3.07 0 5.958 1.203 8.129 3.387zm-2.768 2.785a.678.678 0 0 1 0 .954.667.667 0 0 1-.949 0 6.22 6.22 0 0 0-8.823 0 .668.668 0 0 1-.95 0 .678.678 0 0 1 0-.954 7.557 7.557 0 0 1 10.722 0zm-2.724 2.74a.678.678 0 0 1 0 .955.667.667 0 0 1-.949 0 2.38 2.38 0 0 0-3.375 0 .668.668 0 0 1-.95 0 .678.678 0 0 1 0-.955 3.717 3.717 0 0 1 5.274 0zm11.55 13.146a1.96 1.96 0 0 1 1.013 1.713c0 .554-.449 1.006-1 1.006H14.632a.673.673 0 0 1-.67-.675c0-.373.3-.675.67-.675h2.23v-4.958h-1.824a6.71 6.71 0 0 0-4.782 1.988 12.217 12.217 0 0 1-2.995 2.204.406.406 0 0 0 .186.766h2.778c.37 0 .67.302.67.675 0 .373-.3.675-.67.675H7.448a1.753 1.753 0 0 1-1.746-1.757c0-.657.36-1.254.941-1.557a10.877 10.877 0 0 0 2.666-1.963 8.04 8.04 0 0 1 5.729-2.38h8.145c1.625 0 3.196.483 4.543 1.399l4.438 3.016c.274.186.56.362.851.523zm-14.813 1.369h14.374a.626.626 0 0 0-.208-.186c-.326-.18-.648-.378-.956-.588l-4.438-3.016a6.721 6.721 0 0 0-3.792-1.168h-4.98v4.958zm1.662 2.376c.371 0 .671.302.671.675 0 .373-.3.675-.67.675h-2.073a.673.673 0 0 1-.67-.675c0-.373.3-.675.67-.675h2.072zm26.652-.567c.379.632.579 1.356.58 2.094V35.1a2.498 2.498 0 0 1-2.489 2.503h-1.272c-.2.715-.577 1.39-1.135 1.951a4.409 4.409 0 0 1-3.148 1.312 4.409 4.409 0 0 1-3.147-1.312 4.455 4.455 0 0 1-1.135-1.951H12.49c-.199.715-.576 1.39-1.134 1.951a4.424 4.424 0 0 1-3.148 1.31c-1.14 0-2.28-.437-3.147-1.31a4.46 4.46 0 0 1-1.222-2.318L1.166 36.04A1.977 1.977 0 0 1 0 34.236v-6.537c0-1.472 1.04-2.76 2.471-3.061l.964-.203a8.795 8.795 0 0 0 4.422-2.402 10.078 10.078 0 0 1 7.18-2.984h8.146c2.037 0 4.007.606 5.695 1.754l4.438 3.016c.794.54 1.992 1.286 3.221 1.532l.89.178v-8.132h-5.083a1.68 1.68 0 0 1-1.673-1.684v-3.771c0-.373.3-.675.67-.675.371 0 .671.302.671.675v3.77c0 .185.15.335.332.335h13.067c.183 0 .332-.15.332-.334V2.568a.333.333 0 0 0-.332-.334H32.345a.333.333 0 0 0-.332.334v4.986c0 .373-.3.675-.671.675a.673.673 0 0 1-.671-.675V2.568c0-.929.75-1.684 1.673-1.684h13.067a1.68 1.68 0 0 1 1.674 1.684v13.145a1.68 1.68 0 0 1-1.674 1.684h-4.483v8.832l1.732.347a5.523 5.523 0 0 1 3.645 2.576l.212.353zM38.77 17.397v8.4l.818.164v-8.564h-.818zM10.406 38.6a3.147 3.147 0 0 0 .403-3.924l-.012-.018a3.129 3.129 0 0 0-.167-.23l-.059-.07c-.016-.019-.031-.038-.048-.056a3.184 3.184 0 0 0-.232-.235l-.018-.016a3.156 3.156 0 0 0-.103-.089l-.004-.003a3.1 3.1 0 0 0-3.913-.003l-.01.007a3.081 3.081 0 0 0-.095.082l-.025.022a3.243 3.243 0 0 0-.093.09l-.021.02-.01.01a3.19 3.19 0 0 0-.105.112l-.04.046-.067.08-.044.058a3.017 3.017 0 0 0-.056.074l-.046.066a2.952 2.952 0 0 0-.25.439l-.012.027a3.147 3.147 0 0 0 .63 3.51 3.08 3.08 0 0 0 2.198.917 3.08 3.08 0 0 0 2.199-.916zm30.846 0a3.147 3.147 0 0 0 .166-4.241 3.184 3.184 0 0 0-.166-.182 3.08 3.08 0 0 0-2.199-.917 3.08 3.08 0 0 0-2.315 1.042l-.05.057a3.16 3.16 0 0 0-.236.316 3.147 3.147 0 0 0 .403 3.925 3.08 3.08 0 0 0 2.198.916 3.08 3.08 0 0 0 2.199-.916zm4.502-3.5v-3.5a2.72 2.72 0 0 0-.386-1.398l-.212-.354A4.178 4.178 0 0 0 42.4 27.9l-6.123-1.225c-1.467-.293-2.82-1.132-3.711-1.737l-4.438-3.016a8.764 8.764 0 0 0-4.944-1.522h-8.145c-2.353 0-4.567.92-6.233 2.59a10.132 10.132 0 0 1-5.095 2.767l-.963.203a1.783 1.783 0 0 0-1.405 1.74v6.537c0 .247.145.47.37.571l2.09.935c.072-.502.23-.987.463-1.434l.003-.006c.033-.061.066-.123.102-.183l.006-.01c.072-.123.15-.242.234-.358l.029-.039a4.592 4.592 0 0 1 .236-.29l.04-.047a4.424 4.424 0 0 1 3.292-1.462 4.428 4.428 0 0 1 3.302 1.473l.024.027c.042.048.084.097.125.147l.008.01c.62.767.965 1.703.992 2.683h21.945c.026-.98.37-1.914.989-2.68l.011-.014a4.6 4.6 0 0 1 .12-.14l.029-.034c.043-.048.087-.094.132-.14l.022-.023a4.412 4.412 0 0 1 3.147-1.312 4.417 4.417 0 0 1 3.147 1.311l.023.024c.045.046.089.092.132.14l.03.035c.04.046.08.092.118.139l.013.015c.618.766.961 1.7.988 2.68h1.104a1.15 1.15 0 0 0 1.146-1.154zm-36.106-.16a2.06 2.06 0 0 1 0 2.897c-.385.387-.897.6-1.44.6a2.042 2.042 0 0 1-2.037-2.05 2.042 2.042 0 0 1 2.036-2.048c.544 0 1.056.213 1.44.6zm-.95 1.943a.703.703 0 0 0 0-.99.688.688 0 0 0-.982 0 .696.696 0 0 0-.204.495.697.697 0 0 0 1.187.495zm31.796-1.944c.384.387.596.902.596 1.45a2.042 2.042 0 0 1-2.037 2.048 2.018 2.018 0 0 1-1.44-.6 2.06 2.06 0 0 1 0-2.898c.385-.387.896-.6 1.44-.6.544 0 1.056.213 1.44.6zm-.95 1.944a.696.696 0 0 0 .204-.495.697.697 0 0 0-1.186-.494.703.703 0 0 0 0 .989.688.688 0 0 0 .983 0z"/>
</svg>
